<svg xmlns="http://www.w3.org/2000/svg" xmlns:xlink="http://www.w3.org/1999/xlink" width="40" height="40" version="1.1" style=""><rect id="backgroundrect" width="100%" height="100%" x="0" y="0" fill="none" stroke="none" class="" style=""/>

<g class="currentLayer" style=""><title>Layer 1</title><g id="surface1" class="">
<path style=" stroke:none;fill-rule:nonzero;fill:rgb(64.313725%,8.627451%,6.666667%);fill-opacity:1;" d="M15.414062,5.53925559588623 L6.777344,9.21503759588623 L1.50390625,15.898631595886231 L20.003906,35.00019359588623 L20.003906,23.68378759588623 L15.929688,14.21503759588623 L24.59375,5.53925559588623 zM15.414062,5.53925559588623 " id="svg_1"/>
<path style=" stroke:none;fill-rule:nonzero;fill:rgb(83.137255%,7.058824%,9.019608%);fill-opacity:1;" d="M20.003906,23.68378759588623 L20.003906,35.00019359588623 L38.496094,15.898631595886231 L33.234375,9.21503759588623 L24.59375,5.53925559588623 L15.929688,14.21503759588623 zM20.003906,23.68378759588623 " id="svg_2"/>
<path style=" stroke:none;fill-rule:nonzero;fill:rgb(83.137255%,7.058824%,9.019608%);fill-opacity:1;" d="M24.0625,5.53925559588623 C24.136719,5.53925559588623 24.207031,5.53925559588623 24.273438,5.53925559588623 C24.199219,5.52363159588623 24.125,5.52363159588623 24.0625,5.53925559588623 zM24.0625,5.53925559588623 " id="svg_3"/>
<path style=" stroke:none;fill-rule:nonzero;fill:rgb(95.686275%,76.862745%,77.254902%);fill-opacity:1;" d="M7.246094,22.70331859588623 C7.207031,22.65644359588623 7.171875,22.60956859588623 7.152344,22.57441259588623 C7.1796880000000005,22.62128759588623 7.207031,22.65644359588623 7.246094,22.70331859588623 zM7.246094,22.70331859588623 " id="svg_4"/>
<path style=" stroke:none;fill-rule:nonzero;fill:rgb(95.686275%,76.862745%,77.254902%);fill-opacity:1;" d="M7.132812,22.54706859588623 C7.105469,22.49628759588623 7.089844,22.46113159588623 7.078125,22.41425559588623 C7.089844,22.46113159588623 7.1171880000000005,22.49628759588623 7.132812,22.54706859588623 zM7.132812,22.54706859588623 " id="svg_5"/>
<path style=" stroke:none;fill-rule:nonzero;fill:rgb(95.686275%,76.862745%,77.254902%);fill-opacity:1;" d="M7.042969,21.96113159588623 C7.050781,21.92597459588623 7.050781,21.89472459588623 7.0625,21.86738159588623 C7.0625,21.89472459588623 7.050781,21.92597459588623 7.042969,21.96113159588623 zM7.042969,21.96113159588623 " id="svg_6"/>
<path style=" stroke:none;fill-rule:nonzero;fill:rgb(95.686275%,76.862745%,77.254902%);fill-opacity:1;" d="M7.0703119999999995,21.85956859588623 C7.078125,21.83222459588623 7.089844,21.80097459588623 7.097656,21.77363159588623 C7.078125,21.80097459588623 7.078125,21.83222459588623 7.0703119999999995,21.85956859588623 zM7.0703119999999995,21.85956859588623 " id="svg_7"/>
<path style=" stroke:none;fill-rule:nonzero;fill:rgb(95.686275%,76.862745%,77.254902%);fill-opacity:1;" d="M7.03125,22.09394359588623 C7.03125,22.05488159588623 7.03125,22.01972459588623 7.042969,21.98066259588623 C7.03125,22.01972459588623 7.03125,22.05488159588623 7.03125,22.09394359588623 zM7.03125,22.09394359588623 " id="svg_8"/>
<path style=" stroke:none;fill-rule:nonzero;fill:rgb(95.686275%,76.862745%,77.254902%);fill-opacity:1;" d="M7.042969,22.25409959588623 C7.03125,22.20722459588623 7.03125,22.16816259588623 7.03125,22.13300559588623 C7.03125,22.16816259588623 7.03125,22.20722459588623 7.042969,22.25409959588623 zM7.042969,22.25409959588623 " id="svg_9"/>
<path style=" stroke:none;fill-rule:nonzero;fill:rgb(95.686275%,76.862745%,77.254902%);fill-opacity:1;" d="M7.0703119999999995,22.38691259588623 C7.0625,22.34003759588623 7.050781,22.30097459588623 7.042969,22.26191259588623 C7.042969,22.30097459588623 7.0625,22.34003759588623 7.0703119999999995,22.38691259588623 zM7.0703119999999995,22.38691259588623 " id="svg_10"/>
<path style=" stroke:none;fill-rule:nonzero;fill:rgb(91.372549%,53.333333%,54.509804%);fill-opacity:1;" d="M16.90625,11.38691259588623 C16.988281,12.300974595886231 17.769531,12.97675559588623 18.671875,12.90253759588623 L26.011719,12.24238159588623 C26.90625,12.15644359588623 27.566406,11.35956859588623 27.492188,10.43769359588623 L27.179688,6.6408185958862305 L24.605469,5.53925559588623 C24.605469,5.53925559588623 24.484375,5.53925559588623 24.28125,5.53925559588623 C24.320312,5.550974595886231 24.355469,5.57050559588623 24.394531,5.597849595886231 C24.539062,5.7189435958862305 24.558594,5.933787595886231 24.4375,6.086131595886231 C24.320312,6.2345685958862305 24.109375,6.25409959588623 23.960938,6.13300559588623 C23.8125,6.011912595886231 23.792969,5.793162595886231 23.914062,5.644724595886231 C23.960938,5.586131595886231 24.015625,5.558787595886231 24.070312,5.53925559588623 C22.582031,5.53925559588623 18.359375,5.53925559588623 16.417969,5.53925559588623 C16.417969,5.550974595886231 16.417969,5.550974595886231 16.417969,5.550974595886231 zM25.921875,9.629099595886231 C25.800781,9.78144359588623 25.589844,9.79706859588623 25.441406,9.675974595886231 C25.292969,9.554881595886231 25.277344,9.34003759588623 25.394531,9.18769359588623 C25.515625,9.039255595886232 25.726562,9.019724595886231 25.875,9.14081859588623 C26.019531,9.26191259588623 26.039062,9.48066259588623 25.921875,9.629099595886231 zM25.191406,6.754099595886231 C25.3125,6.60175559588623 25.523438,6.582224595886231 25.671875,6.707224595886231 C25.820312,6.8283185958862305 25.835938,7.04316259588623 25.71875,7.19550559588623 C25.597656,7.3439435958862305 25.386719,7.363474595886231 25.238281,7.242381595886231 C25.09375,7.12128759588623 25.074219,6.902537595886231 25.191406,6.754099595886231 zM24.835938,10.95331859588623 C24.714844,11.10566259588623 24.503906,11.12519359588623 24.355469,11.00019359588623 C24.207031,10.879099595886231 24.191406,10.664255595886232 24.308594,10.51191259588623 C24.429688,10.363474595886231 24.640625,10.34394359588623 24.789062,10.46503759588623 C24.9375,10.59003759588623 24.953125,10.804881595886231 24.835938,10.95331859588623 zM24.109375,8.07831859588623 C24.226562,7.929881595886231 24.4375,7.91034959588623 24.585938,8.03144359588623 C24.734375,8.15253759588623 24.75,8.37128759588623 24.632812,8.519724595886231 C24.511719,8.67206859588623 24.300781,8.68769359588623 24.152344,8.566599595886231 C24.007812,8.43769359588623 23.988281,8.21894359588623 24.109375,8.07831859588623 zM23.539062,9.84394359588623 C23.417969,9.99628759588623 23.207031,10.01581859588623 23.058594,9.89081859588623 C22.910156,9.769724595886231 22.894531,9.554881595886231 23.011719,9.40253759588623 C23.132812,9.254099595886231 23.34375,9.23456859588623 23.492188,9.35566259588623 C23.636719,9.48066259588623 23.65625,9.695505595886232 23.539062,9.84394359588623 zM22.808594,6.9689435958862305 C22.929688,6.82050559588623 23.140625,6.800974595886231 23.289062,6.9220685958862305 C23.4375,7.04316259588623 23.453125,7.26191259588623 23.335938,7.410349595886231 C23.214844,7.5626935958862305 23.003906,7.582224595886231 22.855469,7.45722459588623 C22.710938,7.336131595886231 22.691406,7.1095685958862305 22.808594,6.9689435958862305 zM22.453125,11.160349595886231 C22.332031,11.31269359588623 22.121094,11.332224595886231 21.972656,11.207224595886231 C21.824219,11.08613159588623 21.808594,10.87128759588623 21.925781,10.71894359588623 C22.046875,10.57050559588623 22.257812,10.550974595886231 22.40625,10.67206859588623 C22.554688,10.804881595886231 22.570312,11.019724595886231 22.453125,11.160349595886231 zM22.25,8.738474595886231 C22.128906,8.88691259588623 21.917969,8.90644359588623 21.769531,8.785349595886231 C21.625,8.660349595886231 21.605469,8.44550559588623 21.726562,8.29316259588623 C21.84375,8.144724595886231 22.054688,8.12519359588623 22.203125,8.24628759588623 C22.351562,8.37128759588623 22.367188,8.586131595886231 22.25,8.738474595886231 zM21.523438,5.8595685958862305 C21.640625,5.711131595886231 21.855469,5.691599595886231 22,5.8126935958862305 C22.148438,5.933787595886231 22.167969,6.152537595886231 22.046875,6.30097459588623 C21.925781,6.4533185958862305 21.714844,6.47284959588623 21.570312,6.347849595886231 C21.421875,6.22675559588623 21.402344,6.0001935958862305 21.523438,5.8595685958862305 zM21.164062,10.050974595886231 C21.042969,10.20331859588623 20.832031,10.222849595886231 20.683594,10.097849595886231 C20.539062,9.97675559588623 20.519531,9.76191259588623 20.640625,9.60956859588623 C20.757812,9.46113159588623 20.96875,9.441599595886231 21.117188,9.56269359588623 C21.265625,9.695505595886232 21.285156,9.910349595886231 21.164062,10.050974595886231 zM20.4375,7.183787595886231 C20.554688,7.035349595886231 20.769531,7.0158185958862305 20.914062,7.136912595886231 C21.0625,7.26191259588623 21.082031,7.47675559588623 20.960938,7.629099595886231 C20.839844,7.777537595886231 20.628906,7.7970685958862305 20.484375,7.675974595886231 C20.335938,7.543162595886231 20.316406,7.3283185958862305 20.4375,7.183787595886231 zM20.078125,11.379099595886231 C19.957031,11.52753759588623 19.746094,11.54706859588623 19.601562,11.425974595886231 C19.453125,11.300974595886231 19.433594,11.08613159588623 19.554688,10.93769359588623 C19.671875,10.785349595886231 19.886719,10.76581859588623 20.03125,10.89081859588623 C20.179688,11.01191259588623 20.199219,11.226755595886232 20.078125,11.379099595886231 zM19.867188,8.941599595886231 C19.746094,9.09394359588623 19.535156,9.113474595886231 19.386719,8.988474595886231 C19.242188,8.867381595886231 19.222656,8.65253759588623 19.34375,8.50019359588623 C19.460938,8.35175559588623 19.671875,8.332224595886231 19.820312,8.45331859588623 C19.96875,8.586131595886231 19.984375,8.800974595886231 19.867188,8.941599595886231 zM19.140625,6.074412595886231 C19.257812,5.925974595886231 19.472656,5.9064435958862305 19.617188,6.027537595886231 C19.765625,6.152537595886231 19.785156,6.367381595886231 19.664062,6.51972459588623 C19.542969,6.668162595886231 19.332031,6.6876935958862305 19.1875,6.56659959588623 C19.039062,6.433787595886231 19.019531,6.2189435958862305 19.140625,6.074412595886231 zM18.78125,10.269724595886231 C18.660156,10.41816259588623 18.449219,10.43769359588623 18.300781,10.316599595886231 C18.15625,10.191599595886231 18.136719,9.97675559588623 18.257812,9.82831859588623 C18.375,9.675974595886231 18.585938,9.65644359588623 18.734375,9.78144359588623 C18.882812,9.90253759588623 18.902344,10.11738159588623 18.78125,10.269724595886231 zM18.054688,7.3908185958862305 C18.175781,7.242381595886231 18.386719,7.222849595886231 18.53125,7.3439435958862305 C18.679688,7.4689435958862305 18.699219,7.683787595886231 18.578125,7.832224595886231 C18.460938,7.9845685958862305 18.246094,8.004099595886231 18.101562,7.88300559588623 C17.953125,7.75800559588623 17.933594,7.543162595886231 18.054688,7.3908185958862305 zM18.054688,7.3908185958862305 " id="svg_11"/>
<path style=" stroke:none;fill-rule:nonzero;fill:rgb(91.372549%,53.333333%,54.509804%);fill-opacity:1;" d="M33.453125,13.972849595886231 C33.160156,13.10566259588623 32.222656,12.648631595886231 31.375,12.957224595886231 L7.144531,21.64081859588623 C7.144531,21.64081859588623 7.132812,21.66034959588623 7.125,21.69159959588623 L15.40625,30.23456859588623 L21.9375,27.87519359588623 L29.5625,25.12128759588623 L33.851562,20.69159959588623 L33.824219,20.67597459588623 C33.65625,20.59003759588623 33.582031,20.38300559588623 33.667969,20.21503759588623 C33.75,20.04316259588623 33.953125,19.96894359588623 34.117188,20.05488159588623 C34.191406,20.09003759588623 34.253906,20.16816259588623 34.292969,20.24238159588623 L35.277344,19.21894359588623 L35.285156,19.23456859588623 zM10.261719,22.69550559588623 C10.179688,22.86347459588623 9.976562,22.94159959588623 9.8125,22.85566259588623 C9.644531,22.76972459588623 9.570312,22.56269359588623 9.65625,22.39472459588623 C9.738281,22.22675559588623 9.941406,22.14863159588623 10.105469,22.23456859588623 C10.269531,22.32050559588623 10.34375,22.51581859588623 10.261719,22.69550559588623 zM11.054688,25.00019359588623 C10.96875,25.16816259588623 10.769531,25.24238159588623 10.601562,25.15644359588623 C10.4375,25.07441259588623 10.363281,24.86738159588623 10.445312,24.69941259588623 C10.527344,24.52753759588623 10.730469,24.45331859588623 10.898438,24.53925559588623 C11.0625,24.61347459588623 11.136719,24.82050559588623 11.054688,25.00019359588623 zM32.074219,15.617381595886231 C32.15625,15.44941259588623 32.359375,15.37128759588623 32.527344,15.457224595886231 C32.691406,15.54316259588623 32.765625,15.75019359588623 32.683594,15.91816259588623 C32.597656,16.08613159588623 32.398438,16.16425559588623 32.230469,16.07831859588623 C32.066406,15.992381595886231 31.992188,15.79706859588623 32.074219,15.617381595886231 zM31.347656,17.17597459588623 C31.429688,17.00800559588623 31.632812,16.93378759588623 31.796875,17.01972459588623 C31.964844,17.10175559588623 32.039062,17.30878759588623 31.953125,17.47675559588623 C31.871094,17.64863159588623 31.667969,17.72284959588623 31.503906,17.63691259588623 C31.339844,17.55488159588623 31.265625,17.34784959588623 31.347656,17.17597459588623 zM30.558594,14.87519359588623 C30.640625,14.707224595886231 30.84375,14.629099595886231 31.007812,14.71503759588623 C31.171875,14.800974595886231 31.246094,15.00800559588623 31.164062,15.175974595886231 C31.082031,15.34394359588623 30.878906,15.41816259588623 30.714844,15.336131595886231 C30.546875,15.25019359588623 30.472656,15.04316259588623 30.558594,14.87519359588623 zM29.820312,16.42597459588623 C29.902344,16.25800559588623 30.105469,16.17988159588623 30.269531,16.26581859588623 C30.4375,16.35175559588623 30.511719,16.55878759588623 30.429688,16.72675559588623 C30.34375,16.89472459588623 30.144531,16.97284959588623 29.976562,16.88691259588623 C29.8125,16.81269359588623 29.746094,16.60566259588623 29.820312,16.42597459588623 zM29.09375,17.98456859588623 C29.175781,17.81659959588623 29.378906,17.74238159588623 29.542969,17.82441259588623 C29.710938,17.91034959588623 29.785156,18.11738159588623 29.699219,18.28534959588623 C29.617188,18.45722459588623 29.414062,18.53144359588623 29.25,18.44550559588623 C29.085938,18.36347459588623 29.011719,18.15644359588623 29.09375,17.98456859588623 zM28.300781,15.68378759588623 C28.386719,15.51581859588623 28.589844,15.43769359588623 28.753906,15.523631595886231 C28.917969,15.60956859588623 28.992188,15.816599595886231 28.910156,15.98456859588623 C28.828125,16.15253759588623 28.625,16.22675559588623 28.460938,16.14472459588623 C28.292969,16.05878759588623 28.21875,15.85175559588623 28.300781,15.68378759588623 zM27.574219,17.24238159588623 C27.660156,17.07441259588623 27.859375,17.00019359588623 28.027344,17.08222459588623 C28.191406,17.16816259588623 28.265625,17.37519359588623 28.183594,17.54316259588623 C28.101562,17.71503759588623 27.898438,17.78925559588623 27.730469,17.70331859588623 C27.558594,17.62128759588623 27.492188,17.41425559588623 27.574219,17.24238159588623 zM26.839844,18.79316259588623 C26.921875,18.62519359588623 27.125,18.55097459588623 27.289062,18.63300559588623 C27.457031,18.71894359588623 27.53125,18.92597459588623 27.445312,19.09394359588623 C27.363281,19.26581859588623 27.160156,19.34003759588623 26.996094,19.25409959588623 C26.832031,19.17206859588623 26.757812,18.96503759588623 26.839844,18.79316259588623 zM26.046875,16.49238159588623 C26.132812,16.32050559588623 26.335938,16.24628759588623 26.5,16.33222459588623 C26.664062,16.41816259588623 26.738281,16.62128759588623 26.65625,16.79316259588623 C26.574219,16.96113159588623 26.371094,17.03534959588623 26.207031,16.95331859588623 C26.039062,16.87519359588623 25.964844,16.67206859588623 26.046875,16.49238159588623 zM24.402344,17.60175559588623 C24.320312,17.76972459588623 24.117188,17.84394359588623 23.953125,17.76191259588623 C23.785156,17.67597459588623 23.710938,17.46894359588623 23.792969,17.30097459588623 C23.878906,17.12909959588623 24.078125,17.05488159588623 24.246094,17.14081859588623 C24.410156,17.22284959588623 24.484375,17.42988159588623 24.402344,17.60175559588623 zM25.203125,19.90253759588623 C25.121094,20.07441259588623 24.917969,20.14863159588623 24.75,20.06269359588623 C24.585938,19.98066259588623 24.511719,19.77363159588623 24.59375,19.60175559588623 C24.679688,19.43378759588623 24.878906,19.35956859588623 25.046875,19.44159959588623 C25.210938,19.52753759588623 25.277344,19.73456859588623 25.203125,19.90253759588623 zM25.320312,18.05097459588623 C25.40625,17.88300559588623 25.605469,17.80878759588623 25.773438,17.89081859588623 C25.9375,17.97675559588623 26.011719,18.18378759588623 25.929688,18.35175559588623 C25.847656,18.52363159588623 25.644531,18.59784959588623 25.476562,18.51191259588623 C25.3125,18.42988159588623 25.238281,18.22284959588623 25.320312,18.05097459588623 zM25.992188,22.20722459588623 C25.910156,22.37519359588623 25.707031,22.44941259588623 25.542969,22.36738159588623 C25.378906,22.28144359588623 25.304688,22.07441259588623 25.386719,21.90644359588623 C25.46875,21.73847459588623 25.671875,21.66034959588623 25.835938,21.74628759588623 C26.003906,21.83222459588623 26.078125,22.03925559588623 25.992188,22.20722459588623 zM26.113281,20.35566259588623 C26.195312,20.18769359588623 26.398438,20.10956859588623 26.5625,20.19550559588623 C26.730469,20.28144359588623 26.804688,20.48847459588623 26.71875,20.65644359588623 C26.636719,20.82441259588623 26.433594,20.89863159588623 26.269531,20.81659959588623 C26.105469,20.73066259588623 26.03125,20.52363159588623 26.113281,20.35566259588623 zM26.785156,24.50800559588623 C26.703125,24.67988159588623 26.5,24.75409959588623 26.335938,24.66816259588623 C26.167969,24.58613159588623 26.09375,24.37909959588623 26.175781,24.20722459588623 C26.261719,24.03925559588623 26.460938,23.96503759588623 26.628906,24.05097459588623 C26.792969,24.13300559588623 26.867188,24.33222459588623 26.785156,24.50800559588623 zM27.511719,22.94941259588623 C27.429688,23.11738159588623 27.226562,23.19550559588623 27.0625,23.10956859588623 C26.894531,23.02363159588623 26.820312,22.81659959588623 26.90625,22.64863159588623 C26.988281,22.48066259588623 27.191406,22.40253759588623 27.355469,22.48847459588623 C27.519531,22.57441259588623 27.59375,22.78144359588623 27.511719,22.94941259588623 zM28.246094,21.39863159588623 C28.164062,21.56659959588623 27.960938,21.64081859588623 27.796875,21.55878759588623 C27.632812,21.47284959588623 27.558594,21.26581859588623 27.640625,21.09784959588623 C27.722656,20.92988159588623 27.925781,20.85175559588623 28.089844,20.93769359588623 C28.257812,21.02363159588623 28.320312,21.21894359588623 28.246094,21.39863159588623 zM28.367188,19.54706859588623 C28.449219,19.37909959588623 28.652344,19.30097459588623 28.816406,19.38691259588623 C28.984375,19.47284959588623 29.058594,19.67988159588623 28.972656,19.84784959588623 C28.890625,20.01581859588623 28.6875,20.09003759588623 28.523438,20.00800559588623 C28.359375,19.92206859588623 28.285156,19.71503759588623 28.367188,19.54706859588623 zM29.039062,23.70331859588623 C28.957031,23.87128759588623 28.753906,23.94550559588623 28.589844,23.85956859588623 C28.421875,23.77753759588623 28.347656,23.57050559588623 28.429688,23.39863159588623 C28.515625,23.23066259588623 28.714844,23.15644359588623 28.882812,23.24238159588623 C29.046875,23.31659959588623 29.121094,23.52363159588623 29.039062,23.70331859588623 zM29.765625,22.14081859588623 C29.683594,22.30878759588623 29.480469,22.38691259588623 29.316406,22.30097459588623 C29.148438,22.21503759588623 29.074219,22.00800559588623 29.160156,21.84003759588623 C29.242188,21.67206859588623 29.445312,21.59394359588623 29.609375,21.67988159588623 C29.773438,21.76581859588623 29.847656,21.97284959588623 29.765625,22.14081859588623 zM30.492188,20.59003759588623 C30.410156,20.75800559588623 30.207031,20.83613159588623 30.042969,20.75019359588623 C29.875,20.66425559588623 29.800781,20.45722459588623 29.886719,20.28925559588623 C29.96875,20.12128759588623 30.171875,20.04316259588623 30.335938,20.12909959588623 C30.5,20.20331859588623 30.574219,20.41034959588623 30.492188,20.59003759588623 zM30.621094,18.73066259588623 C30.703125,18.55878759588623 30.90625,18.48456859588623 31.070312,18.57050559588623 C31.238281,18.65253759588623 31.3125,18.85956859588623 31.226562,19.03144359588623 C31.144531,19.19941259588623 30.941406,19.27363159588623 30.777344,19.18769359588623 C30.601562,19.10566259588623 30.539062,18.90644359588623 30.621094,18.73066259588623 zM31.292969,22.88300559588623 C31.210938,23.05097459588623 31.007812,23.12909959588623 30.84375,23.04316259588623 C30.675781,22.95722459588623 30.601562,22.75019359588623 30.683594,22.58222459588623 C30.769531,22.41425559588623 30.96875,22.34003759588623 31.136719,22.42206859588623 C31.300781,22.50800559588623 31.367188,22.71503759588623 31.292969,22.88300559588623 zM32.019531,21.33222459588623 C31.9375,21.50019359588623 31.734375,21.57831859588623 31.570312,21.49238159588623 C31.402344,21.40644359588623 31.328125,21.19941259588623 31.414062,21.03144359588623 C31.496094,20.86347459588623 31.699219,20.78925559588623 31.863281,20.87128759588623 C32.027344,20.95722459588623 32.101562,21.16425559588623 32.019531,21.33222459588623 zM32.746094,19.77363159588623 C32.664062,19.94159959588623 32.460938,20.01581859588623 32.296875,19.93378759588623 C32.128906,19.84784959588623 32.054688,19.64081859588623 32.140625,19.47284959588623 C32.222656,19.30097459588623 32.425781,19.22675559588623 32.589844,19.31269359588623 C32.753906,19.39472459588623 32.828125,19.60175559588623 32.746094,19.77363159588623 zM33.480469,18.22284959588623 C33.398438,18.39081859588623 33.195312,18.46503759588623 33.03125,18.37909959588623 C32.867188,18.29706859588623 32.792969,18.09003759588623 32.875,17.92206859588623 C32.957031,17.75019359588623 33.160156,17.67597459588623 33.324219,17.76191259588623 C33.492188,17.84394359588623 33.554688,18.05097459588623 33.480469,18.22284959588623 zM33.480469,18.22284959588623 " id="svg_12"/>
<path style=" stroke:none;fill-rule:nonzero;fill:rgb(91.372549%,53.333333%,54.509804%);fill-opacity:1;" d="M7.1171880000000005,21.70722459588623 C7.1171880000000005,21.69941259588623 7.1171880000000005,21.69941259588623 7.125,21.69941259588623 C7.1171880000000005,21.69941259588623 7.1171880000000005,21.70722459588623 7.1171880000000005,21.70722459588623 zM7.1171880000000005,21.70722459588623 " id="svg_13"/>
<path style=" stroke:none;fill-rule:nonzero;fill:rgb(91.372549%,53.333333%,54.509804%);fill-opacity:1;" d="M7.1171880000000005,21.71894359588623 C7.105469,21.72675559588623 7.105469,21.74628759588623 7.097656,21.76581859588623 C7.105469,21.74628759588623 7.105469,21.72675559588623 7.1171880000000005,21.71894359588623 zM7.1171880000000005,21.71894359588623 " id="svg_14"/>
<path style=" stroke:none;fill-rule:nonzero;fill:rgb(95.686275%,76.862745%,77.254902%);fill-opacity:1;" d="M7.152344,22.57441259588623 C7.144531,22.56269359588623 7.144531,22.55488159588623 7.132812,22.54706859588623 C7.144531,22.55488159588623 7.144531,22.56269359588623 7.152344,22.57441259588623 zM7.152344,22.57441259588623 " id="svg_15"/>
<path style=" stroke:none;fill-rule:nonzero;fill:rgb(95.686275%,76.862745%,77.254902%);fill-opacity:1;" d="M7.078125,22.41425559588623 C7.078125,22.40253759588623 7.0703119999999995,22.39472459588623 7.0703119999999995,22.38691259588623 C7.0703119999999995,22.39472459588623 7.0703119999999995,22.40253759588623 7.078125,22.41425559588623 zM7.078125,22.41425559588623 " id="svg_16"/>
<path style=" stroke:none;fill-rule:nonzero;fill:rgb(95.686275%,76.862745%,77.254902%);fill-opacity:1;" d="M7.0625,21.86738159588623 C7.0625,21.86738159588623 7.0703119999999995,21.85956859588623 7.0625,21.86738159588623 C7.0703119999999995,21.85956859588623 7.0625,21.86738159588623 7.0625,21.86738159588623 zM7.0625,21.86738159588623 " id="svg_17"/>
<path style=" stroke:none;fill-rule:nonzero;fill:rgb(95.686275%,76.862745%,77.254902%);fill-opacity:1;" d="M7.089844,21.77363159588623 C7.089844,21.77363159588623 7.089844,21.76581859588623 7.089844,21.76581859588623 C7.097656,21.76581859588623 7.097656,21.76581859588623 7.089844,21.77363159588623 zM7.089844,21.77363159588623 " id="svg_18"/>
<path style=" stroke:none;fill-rule:nonzero;fill:rgb(95.686275%,76.862745%,77.254902%);fill-opacity:1;" d="M33.851562,20.70331859588623 L34.28125,20.25019359588623 zM33.851562,20.70331859588623 " id="svg_19"/>
<path style=" stroke:none;fill-rule:nonzero;fill:rgb(95.686275%,76.862745%,77.254902%);fill-opacity:1;" d="M29.5625,25.12909959588623 L29.601562,25.10956859588623 zM29.5625,25.12909959588623 " id="svg_20"/>
<path style=" stroke:none;fill-rule:nonzero;fill:rgb(95.686275%,76.862745%,77.254902%);fill-opacity:1;" d="M26.730469,5.793162595886231 C26.242188,5.558787595886231 25.257812,5.0626935958862305 24.652344,5.0314435958862305 C24.042969,5.0040998458862305 18.046875,4.9845685958862305 17.179688,5.0158185958862305 C16.398438,5.0314435958862305 16.398438,5.465037595886231 16.40625,5.550974595886231 C18.347656,5.550974595886231 22.570312,5.550974595886231 24.0625,5.550974595886231 C24.125,5.5314435958862305 24.199219,5.52363159588623 24.273438,5.550974595886231 C24.476562,5.550974595886231 24.59375,5.550974595886231 24.59375,5.550974595886231 L27.171875,6.648631595886231 L27.171875,6.621287595886231 C27.171875,6.613474595886231 27.21875,6.03925559588623 26.730469,5.793162595886231 zM26.730469,5.793162595886231 " id="svg_21"/>
<path style=" stroke:none;fill-rule:nonzero;fill:rgb(95.686275%,76.862745%,77.254902%);fill-opacity:1;" d="M7.097656,21.75409959588623 C7.097656,21.75409959588623 7.097656,21.76581859588623 7.097656,21.76581859588623 C7.089844,21.79316259588623 7.078125,21.82050559588623 7.0703119999999995,21.84784959588623 C7.0703119999999995,21.84784959588623 7.0703119999999995,21.85956859588623 7.0703119999999995,21.85956859588623 C7.0625,21.88691259588623 7.0625,21.91425559588623 7.050781,21.95331859588623 C7.050781,21.96113159588623 7.050781,21.97284959588623 7.050781,21.98066259588623 C7.042969,22.01972459588623 7.042969,22.05488159588623 7.042969,22.09394359588623 C7.042969,22.10175559588623 7.042969,22.11347459588623 7.042969,22.12128759588623 C7.042969,22.16034959588623 7.042969,22.20722459588623 7.050781,22.24628759588623 C7.050781,22.24628759588623 7.050781,22.25409959588623 7.050781,22.25409959588623 C7.0625,22.29316259588623 7.0703119999999995,22.34003759588623 7.078125,22.37519359588623 C7.078125,22.38691259588623 7.089844,22.39472459588623 7.089844,22.40253759588623 C7.105469,22.44941259588623 7.125,22.48847459588623 7.144531,22.53534959588623 C7.152344,22.54706859588623 7.152344,22.55488159588623 7.160156,22.56269359588623 C7.1875,22.60956859588623 7.21875,22.65644359588623 7.253906,22.69550559588623 C7.667969,23.17597459588623 14.152344,29.77363159588623 14.457031,30.07441259588623 C14.75,30.38300559588623 15.386719,30.23456859588623 15.386719,30.23456859588623 L15.40625,30.22675559588623 L7.125,21.67988159588623 C7.1171880000000005,21.70722459588623 7.105469,21.73847459588623 7.097656,21.75409959588623 zM7.097656,21.75409959588623 " id="svg_22"/>
<path style=" stroke:none;fill-rule:nonzero;fill:rgb(95.686275%,76.862745%,77.254902%);fill-opacity:1;" d="M35.277344,19.24628759588623 L35.265625,19.22675559588623 L34.28125,20.25019359588623 L33.851562,20.70331859588623 L29.5625,25.12909959588623 L29.601562,25.10956859588623 C29.601562,25.10956859588623 30.429688,24.92206859588623 30.925781,24.43378759588623 C31.441406,23.93769359588623 34.761719,20.55097459588623 35.109375,20.15644359588623 C35.46875,19.74238159588623 35.277344,19.24628759588623 35.277344,19.24628759588623 zM35.277344,19.24628759588623 " id="svg_23"/>
<path style=" stroke:none;fill-rule:nonzero;fill:rgb(95.686275%,76.862745%,77.254902%);fill-opacity:1;" d="M21.769531,19.46113159588623 C21.570312,18.87128759588623 20.933594,18.57050559588623 20.363281,18.77753759588623 L13.59375,21.21113159588623 C13.011719,21.41816259588623 12.71875,22.06659959588623 12.921875,22.64863159588623 L14.585938,27.46894359588623 C14.789062,28.06269359588623 15.421875,28.36347459588623 15.992188,28.15644359588623 L22.765625,25.72284959588623 C23.34375,25.51581859588623 23.636719,24.86738159588623 23.4375,24.28534959588623 zM21.769531,19.46113159588623 " id="svg_24"/>
</g></g></svg>
